<?xml version="1.0" standalone="no"?><!DOCTYPE svg PUBLIC "-//W3C//DTD SVG 1.1//EN" "http://www.w3.org/Graphics/SVG/1.1/DTD/svg11.dtd"><svg class="icon" width="200px" height="200.00px" viewBox="0 0 1024 1024" version="1.1" xmlns="http://www.w3.org/2000/svg"><path fill="#707070" d="M455.9872 910.1824a127.0784 127.0784 0 0 0 102.4-2.304c94.8736-44.4416 315.4944-167.2192 315.4944-346.5728V314.8288A114.2272 114.2272 0 0 0 783.36 203.4176c-57.344-11.9296-140.9536-35.84-213.4528-81.92A113.2032 113.2032 0 0 0 445.44 122.88c-71.2192 48.2304-153.088 71.168-209.2544 81.92A114.0224 114.0224 0 0 0 143.36 316.6208v239.616c0 201.7792 218.7264 314.7264 312.6272 353.9456zM199.68 316.6208a57.6512 57.6512 0 0 1 46.9504-56.32c61.44-11.7248 151.1424-36.9664 230.4-90.5728a56.32 56.32 0 0 1 31.6928-9.728 57.344 57.344 0 0 1 30.72 9.0624C619.52 219.648 709.9904 245.76 771.9424 258.56a57.7024 57.7024 0 0 1 45.7216 56.32v246.4768c0 146.9952-197.9904 255.6928-283.0848 295.5776a70.5536 70.5536 0 0 1-56.8832 1.3312C394.24 823.3472 199.68 724.1216 199.68 556.2368z"  /><path fill="#707070" d="M447.7952 617.1136a51.2 51.2 0 0 0 35.4816 14.336h2.5088a51.2 51.2 0 0 0 36.4544-18.0736l161.6896-190.5664a28.16 28.16 0 0 0-42.9568-36.4032l-158.1056 186.3168-84.992-81.92a28.16 28.16 0 1 0-39.0656 40.4992z"  /></svg>