<?xml version="1.0" standalone="no"?><!DOCTYPE svg PUBLIC "-//W3C//DTD SVG 1.1//EN" "http://www.w3.org/Graphics/SVG/1.1/DTD/svg11.dtd"><svg class="icon" width="200px" height="200.00px" viewBox="0 0 1024 1024" version="1.1" xmlns="http://www.w3.org/2000/svg"><path fill="#707070" d="M512.8192 921.6a417.1776 417.1776 0 1 0-417.1264-417.1776A417.6384 417.6384 0 0 0 512.8192 921.6z m0-777.984a360.8576 360.8576 0 1 1-360.8064 360.8064 361.216 361.216 0 0 1 360.8064-360.8064z"  /><path fill="#707070" d="M513.024 719.36a214.1184 214.1184 0 0 0 129.9968-43.52 28.16 28.16 0 1 0-34.1504-44.7488 158.72 158.72 0 1 1 0-252.7744 28.16 28.16 0 1 0 34.1504-44.8 215.04 215.04 0 1 0-129.9968 385.8432z"  /></svg>