<?xml version="1.0" standalone="no"?><!DOCTYPE svg PUBLIC "-//W3C//DTD SVG 1.1//EN" "http://www.w3.org/Graphics/SVG/1.1/DTD/svg11.dtd"><svg t="1676448429673" class="icon" viewBox="0 0 1024 1024" version="1.1" xmlns="http://www.w3.org/2000/svg" p-id="895" xmlns:xlink="http://www.w3.org/1999/xlink" width="200" height="200"><path d="M904.12373333 134.43982222c-9.34494815 0.36408889-18.56853333 0.48545185-27.54939258 0.48545186-236.53641482 0-340.90856297-100.24580741-341.75810372-101.09534816l-23.54441481-23.9085037-23.78714074 23.9085037c-0.9709037 1.09226667-103.15851852 101.09534815-341.63674073 101.09534816-8.98085925 0-18.20444445-0.12136297-27.5493926-0.48545186l-33.25345185-1.09226667v454.38293334c0 118.9357037 42.96248889 292.48474075 414.57588148 425.25582222l11.65084444 4.12634074 11.65084445-4.12634074c371.61339259-132.77108148 414.57588148-306.32011852 414.57588148-425.25582222V133.34755555l-33.37481482 1.09226667M474.62020741 705.20983703L260.53594075 518.79632592l56.79786666-45.26838517 113.83845926 82.5268148S588.3373037 396.21973333 740.16237037 321.46014815l21.72397038 24.02986667S572.19602963 500.10642963 474.62020741 705.20983703m0 0" fill="#707070" p-id="896"></path></svg>