<?xml version="1.0" standalone="no"?><!DOCTYPE svg PUBLIC "-//W3C//DTD SVG 1.1//EN" "http://www.w3.org/Graphics/SVG/1.1/DTD/svg11.dtd"><svg class="icon" width="200px" height="200.00px" viewBox="0 0 1024 1024" version="1.1" xmlns="http://www.w3.org/2000/svg"><path fill="#707070" d="M292.8128 910.1312h432.64a179.2 179.2 0 0 0 179.2-178.944V424.96a188.3136 188.3136 0 0 0-51.6096-129.792L732.16 167.4752a189.9008 189.9008 0 0 0-137.4208-59.2384h-302.08a179.2 179.2 0 0 0-178.944 179.2v443.9552a179.2 179.2 0 0 0 179.0976 178.7392z m101.632-56.32V716.8a87.296 87.296 0 0 1 87.04-87.04h55.0912a87.296 87.296 0 0 1 87.04 87.04v136.8576zM170.1888 287.232a122.88 122.88 0 0 1 122.624-122.88h302.08A133.12 133.12 0 0 1 691.2 206.1312l120.6784 128A131.9936 131.9936 0 0 1 848.128 424.96v306.176a122.88 122.88 0 0 1-122.88 122.624h-45.312V716.8a143.7184 143.7184 0 0 0-143.36-143.36H481.6896a143.7184 143.7184 0 0 0-143.36 143.36v136.8576h-45.5168a122.88 122.88 0 0 1-122.624-122.624z"  /><path fill="#707070" d="M264.192 336.0256h145.0496a28.16 28.16 0 1 0 0-56.32H264.192a28.16 28.16 0 0 0 0 56.32z"  /></svg>