<?xml version="1.0" standalone="no"?><!DOCTYPE svg PUBLIC "-//W3C//DTD SVG 1.1//EN" "http://www.w3.org/Graphics/SVG/1.1/DTD/svg11.dtd"><svg class="icon" width="200px" height="200.00px" viewBox="0 0 1024 1024" version="1.1" xmlns="http://www.w3.org/2000/svg"><path fill="#707070" d="M715.8784 171.9296h-31.1296a98.2016 98.2016 0 0 0-94.8736-73.3696H440.32a98.304 98.304 0 0 0-95.1296 73.3696h-31.0784a149.6576 149.6576 0 0 0-149.504 149.504v440.9344a149.6576 149.6576 0 0 0 149.504 149.504h401.7664A149.6576 149.6576 0 0 0 865.28 762.368V321.4336a149.6576 149.6576 0 0 0-149.4016-149.504z m-317.44 24.832A41.9328 41.9328 0 0 1 440.32 154.88h149.76a41.9328 41.9328 0 0 1 41.8816 41.8816v11.5712a41.9328 41.9328 0 0 1-41.8816 41.8816H440.32a41.9328 41.9328 0 0 1-41.8816-41.8816zM808.96 762.368a93.2864 93.2864 0 0 1-93.184 93.184H314.112a93.2352 93.2352 0 0 1-93.184-93.184V321.4336a93.2864 93.2864 0 0 1 93.184-93.184h29.8496A98.304 98.304 0 0 0 440.32 306.5344h149.76A98.3552 98.3552 0 0 0 686.08 228.2496h29.8496A93.3376 93.3376 0 0 1 808.96 321.4336z"  /><path fill="#707070" d="M374.3744 450.2528h178.176a28.16 28.16 0 1 0 0-56.32h-178.176a28.16 28.16 0 0 0 0 56.32zM659.9168 549.2224H374.3744a28.16 28.16 0 0 0 0 56.32h285.5424a28.16 28.16 0 0 0 0-56.32zM659.9168 704.5632H374.3744a28.16 28.16 0 0 0 0 56.32h285.5424a28.16 28.16 0 0 0 0-56.32z"  /></svg>