<?xml version="1.0" standalone="no"?><!DOCTYPE svg PUBLIC "-//W3C//DTD SVG 1.1//EN" "http://www.w3.org/Graphics/SVG/1.1/DTD/svg11.dtd"><svg class="icon" width="200px" height="200.00px" viewBox="0 0 1024 1024" version="1.1" xmlns="http://www.w3.org/2000/svg"><path fill="#707070" d="M513.3824 87.04a417.1776 417.1776 0 1 0 417.1264 417.1776A417.6384 417.6384 0 0 0 513.3824 87.04z m0 778.24a360.8576 360.8576 0 1 1 360.8064-360.8064A361.216 361.216 0 0 1 513.3824 865.28z"  /><path fill="#707070" d="M656.9472 316.416L433.3568 407.04a27.9552 27.9552 0 0 0-15.36 15.7696l-88.4736 224.0512a28.2112 28.2112 0 0 0 37.1712 36.2496L593.92 587.1104a27.8528 27.8528 0 0 0 15.36-15.8208l84.3776-218.624a28.16 28.16 0 0 0-36.8128-36.2496z m-95.7952 223.4368L406.4256 605.184 465.92 454.7072l152.1152-61.44z"  /></svg>