<?xml version="1.0" standalone="no"?><!DOCTYPE svg PUBLIC "-//W3C//DTD SVG 1.1//EN" "http://www.w3.org/Graphics/SVG/1.1/DTD/svg11.dtd"><svg class="icon" width="200px" height="200.00px" viewBox="0 0 1024 1024" version="1.1" xmlns="http://www.w3.org/2000/svg"><path fill="#707070" d="M514.2528 935.168A417.1776 417.1776 0 1 0 97.28 517.9904a417.6384 417.6384 0 0 0 416.9728 417.1776zM827.904 696.32l-248.832-184.9856h295.8848v6.656A358.8096 358.8096 0 0 1 827.904 696.32z m41.5744-241.1008H541.184v-296.96a361.472 361.472 0 0 1 328.2944 296.7552zM484.864 158.72v338.6368a28.2112 28.2112 0 0 0 11.4176 22.6304l299.9808 222.7712A360.704 360.704 0 1 1 484.864 158.72z"  /></svg>