<?xml version="1.0" standalone="no"?><!DOCTYPE svg PUBLIC "-//W3C//DTD SVG 1.1//EN" "http://www.w3.org/Graphics/SVG/1.1/DTD/svg11.dtd"><svg class="icon" width="200px" height="200.00px" viewBox="0 0 1024 1024" version="1.1" xmlns="http://www.w3.org/2000/svg"><path fill="#707070" d="M483.5328 307.712H331.6736a28.16 28.16 0 0 0 0 56.32h151.8592a28.16 28.16 0 1 0 0-56.32zM483.5328 482.8672H331.6736a28.16 28.16 0 0 0 0 56.32h151.8592a28.16 28.16 0 0 0 0-56.32zM483.5328 658.0224H331.6736a28.16 28.16 0 0 0 0 56.32h151.8592a28.16 28.16 0 0 0 0-56.32z"  /><path fill="#707070" d="M936.96 844.8h-48.9472V465.5104a101.5808 101.5808 0 0 0-101.4272-101.4272h-135.2704V236.7488a116.1216 116.1216 0 0 0-116.0192-115.968H278.4768a116.1216 116.1216 0 0 0-116.0192 115.968V844.8h-48.9472a28.16 28.16 0 1 0 0 56.32H936.96a28.16 28.16 0 0 0 0-56.32zM218.7776 236.7488a59.7504 59.7504 0 0 1 59.6992-59.648h256.8192a59.7504 59.7504 0 0 1 59.6992 59.648V844.8H218.7776zM651.3152 844.8V420.4032h135.3728a45.2096 45.2096 0 0 1 45.1072 45.1072V844.8z"  /></svg>