<?xml version="1.0" standalone="no"?><!DOCTYPE svg PUBLIC "-//W3C//DTD SVG 1.1//EN" "http://www.w3.org/Graphics/SVG/1.1/DTD/svg11.dtd"><svg class="icon" width="200px" height="200.00px" viewBox="0 0 1024 1024" version="1.1" xmlns="http://www.w3.org/2000/svg"><path fill="#707070" d="M315.7504 881.2544h397.056a180.6848 180.6848 0 0 0 180.48-180.48V311.04a180.6848 180.6848 0 0 0-180.48-180.48H315.7504a180.6848 180.6848 0 0 0-180.48 180.48v389.7344a180.6848 180.6848 0 0 0 180.48 180.48zM191.5904 311.04A124.3136 124.3136 0 0 1 315.7504 186.88h397.056a124.3136 124.3136 0 0 1 124.16 124.16v389.7344a124.3136 124.3136 0 0 1-124.16 124.16H315.7504a124.3136 124.3136 0 0 1-124.16-124.16z"  /><path fill="#707070" d="M514.2528 511.6416a183.808 183.808 0 0 0 183.6032-183.6032V322.56a28.16 28.16 0 1 0-56.32 0v5.5808a127.2832 127.2832 0 1 1-254.5152 0V322.56a28.16 28.16 0 1 0-56.32 0v5.5808a183.808 183.808 0 0 0 183.552 183.5008z"  /></svg>