<?xml version="1.0" standalone="no"?><!DOCTYPE svg PUBLIC "-//W3C//DTD SVG 1.1//EN" "http://www.w3.org/Graphics/SVG/1.1/DTD/svg11.dtd"><svg class="icon" width="200px" height="200.00px" viewBox="0 0 1024 1024" version="1.1" xmlns="http://www.w3.org/2000/svg"><path fill="#707070" d="M152.7808 182.5792h29.0304a50.5856 50.5856 0 0 1 49.8176 42.9056l60.5696 387.584a161.9456 161.9456 0 0 0 160.768 137.5744h372.224a28.16 28.16 0 0 0 0-56.32h-372.224a105.8816 105.8816 0 0 1-105.1136-89.9584L287.232 216.9344a106.5984 106.5984 0 0 0-105.1136-90.5216H153.088a28.16 28.16 0 0 0-0.3072 56.32z"  /><path fill="#707070" d="M359.3216 261.12h388.608a87.04 87.04 0 0 1 85.248 105.984L819.2 430.4896a138.5472 138.5472 0 0 1-125.5424 109.2096l-279.3984 21.4528a28.16 28.16 0 0 0 2.1504 56.32h2.1504l279.4496-21.4016a194.56 194.56 0 0 0 176.2816-153.344l13.8752-63.3856a143.36 143.36 0 0 0-140.2368-174.08h-388.608a28.16 28.16 0 0 0 0 56.32z"  /><path fill="#707070" d="M388.1472 836.3008m-46.3872 0a46.3872 46.3872 0 1 0 92.7744 0 46.3872 46.3872 0 1 0-92.7744 0Z"  /><path fill="#707070" d="M766.4128 836.3008m-46.3872 0a46.3872 46.3872 0 1 0 92.7744 0 46.3872 46.3872 0 1 0-92.7744 0Z"  /></svg>