<?xml version="1.0" standalone="no"?><!DOCTYPE svg PUBLIC "-//W3C//DTD SVG 1.1//EN" "http://www.w3.org/Graphics/SVG/1.1/DTD/svg11.dtd"><svg t="1676854775645" class="icon" viewBox="0 0 1024 1024" version="1.1" xmlns="http://www.w3.org/2000/svg" p-id="1275" xmlns:xlink="http://www.w3.org/1999/xlink" width="200" height="200"><path d="M916.37305947 410.76045401l-352.44922324-310.63321407c-29.86857862-23.89486289-77.65830352-23.89486289-107.52688125 0l-352.44922324 310.63321407c-11.94743144 11.94743144-17.92114717 29.86857862-5.97371572 47.78972491s23.89486289 17.92114717 35.84229345 5.97371571l11.94743145-11.94743144v376.34408613c0 53.76344063 47.7897249 95.57945068 95.57945069 95.57945069h555.55555516c41.81600918 0 71.68458779-35.84229433 71.6845878-95.57945069v-376.34408613l11.94743145 5.97371573c5.97371572 5.97371572 11.94743144 5.97371572 17.92114716 5.97371571 5.97371572 0 17.92114717-5.97371572 23.89486201-11.94743144 11.94743144-11.94743144 5.97371572-29.86857862-5.97371572-41.81600918z m-436.08124247 448.02867392v-173.23775419c0-5.97371572 11.94743144-11.94743144 29.8685786-11.94743145s29.86857862 5.97371572 29.86857862 11.94743145v173.23775419h-59.73715722z m334.52807695-35.84229433c0 17.92114717-5.97371572 29.86857862-17.92114717 29.86857861H593.79241484v-173.2377542c0-29.86857862-23.89486289-71.68458779-83.63201924-71.68458779s-83.63201924 35.84229433-83.63201923 77.65830352v173.23775419H241.3431916c-17.92114717 0-41.81600918-17.92114717-41.81601006-29.86857861v-424.13381103l286.73835117-250.89605772c11.94743144-11.94743144 29.86857862-11.94743144 41.81601007-5.97371485l286.73835117 250.89605685v424.13381103z" fill="#333333" p-id="1276"></path></svg>