<?xml version="1.0" standalone="no"?><!DOCTYPE svg PUBLIC "-//W3C//DTD SVG 1.1//EN" "http://www.w3.org/Graphics/SVG/1.1/DTD/svg11.dtd"><svg class="icon" width="200px" height="200.00px" viewBox="0 0 1024 1024" version="1.1" xmlns="http://www.w3.org/2000/svg"><path fill="#707070" d="M805.7856 202.0352a141.7728 141.7728 0 0 0-121.0368-68.6592H342.3232a141.6704 141.6704 0 0 0-121.0368 68.6592L112.64 383.6928a140.3392 140.3392 0 0 0 23.5008 174.08l278.9376 267.008a140.8 140.8 0 0 0 194.56 0L890.4192 558.08a140.2368 140.2368 0 0 0 23.808-174.3872z m45.7728 315.0848l-280.4736 267.1616a84.5312 84.5312 0 0 1-116.992 0L175.2064 517.12a84.224 84.224 0 0 1-14.1312-104.6016l108.544-181.6064a85.0432 85.0432 0 0 1 72.704-41.216h342.4256a85.0432 85.0432 0 0 1 72.6528 41.216l108.4928 181.504a84.224 84.224 0 0 1-14.336 104.704z"  /><path fill="#707070" d="M668.3648 428.6464l-142.7456 143.7184a19.1488 19.1488 0 0 1-26.9312 0L359.1168 435.5584a28.16 28.16 0 0 0-39.4752 40.192l139.6224 136.96a75.5712 75.5712 0 0 0 106.2912-0.6656l142.7968-143.7184a28.16 28.16 0 1 0-39.9872-39.68z"  /></svg>