<?xml version="1.0" standalone="no"?><!DOCTYPE svg PUBLIC "-//W3C//DTD SVG 1.1//EN" "http://www.w3.org/Graphics/SVG/1.1/DTD/svg11.dtd"><svg class="icon" width="200px" height="200.00px" viewBox="0 0 1024 1024" version="1.1" xmlns="http://www.w3.org/2000/svg"><path fill="#707070" d="M721.3056 126.9248h-414.72a185.0368 185.0368 0 0 0-184.832 184.832v414.72A185.0368 185.0368 0 0 0 306.7392 911.36h414.72a185.0368 185.0368 0 0 0 184.832-184.832v-414.72a185.088 185.088 0 0 0-184.9856-184.8832zM849.92 726.3232a128.6656 128.6656 0 0 1-128.512 128.512h-414.72a128.6656 128.6656 0 0 1-128.512-128.512v-414.72a128.6656 128.6656 0 0 1 128.512-128.512h414.72A128.6656 128.6656 0 0 1 849.92 311.7568z"  /><path fill="#707070" d="M444.8768 352.6656h-42.5472v-42.5472a28.16 28.16 0 0 0-56.32 0v42.5472h-42.5984a28.16 28.16 0 1 0 0 56.32h42.5984v42.5472a28.16 28.16 0 0 0 56.32 0v-42.5472h42.5472a28.16 28.16 0 0 0 0-56.32zM726.2208 352.6656h-134.8096a28.16 28.16 0 1 0 0 56.32h134.8096a28.16 28.16 0 0 0 0-56.32zM726.2208 675.84h-134.8096a28.16 28.16 0 1 0 0 56.32h134.8096a28.16 28.16 0 1 0 0-56.32zM726.2208 564.4288h-134.8096a28.16 28.16 0 0 0 0 56.32h134.8096a28.16 28.16 0 0 0 0-56.32zM449.3824 572.672a28.16 28.16 0 0 0-39.8336 0l-35.3792 35.3792-35.4304-35.3792a28.16 28.16 0 1 0-39.8336 39.8336l35.4304 35.3792-35.4304 35.3792a28.16 28.16 0 0 0 19.9168 48.0768 27.904 27.904 0 0 0 19.9168-8.2432l35.4304-35.3792 35.4304 35.3792a28.16 28.16 0 0 0 39.8336 0 28.2624 28.2624 0 0 0 0-39.8336l-35.4304-35.3792 35.4304-35.3792a28.2624 28.2624 0 0 0-0.0512-39.8336z"  /></svg>