<?xml version="1.0" standalone="no"?><!DOCTYPE svg PUBLIC "-//W3C//DTD SVG 1.1//EN" "http://www.w3.org/Graphics/SVG/1.1/DTD/svg11.dtd"><svg class="icon" width="200px" height="200.00px" viewBox="0 0 1024 1024" version="1.1" xmlns="http://www.w3.org/2000/svg"><path fill="#707070" d="M513.4336 110.3872a408.576 408.576 0 1 0 408.576 408.576 409.0368 409.0368 0 0 0-408.576-408.576z m0 760.832a352.256 352.256 0 1 1 352.256-352.256 352.6656 352.6656 0 0 1-352.256 352.256z"  /><path fill="#707070" d="M576.4608 372.992a89.1904 89.1904 0 0 0-126.1056 0l-82.8928 82.944a89.1392 89.1392 0 0 0 0 126.0544L450.56 664.9344a89.1904 89.1904 0 0 0 126.1056 0l82.8928-82.944a89.1392 89.1392 0 0 0 0-126.0544zM619.52 542.208l-82.944 82.8928a32.8192 32.8192 0 0 1-46.4384 0L407.296 542.208a32.8192 32.8192 0 0 1 0-46.4384l82.8928-82.944a32.8192 32.8192 0 0 1 46.4384 0L619.52 495.7696a32.9216 32.9216 0 0 1 0 46.4384z"  /></svg>