<?xml version="1.0" standalone="no"?><!DOCTYPE svg PUBLIC "-//W3C//DTD SVG 1.1//EN" "http://www.w3.org/Graphics/SVG/1.1/DTD/svg11.dtd"><svg class="icon" width="200px" height="200.00px" viewBox="0 0 1024 1024" version="1.1" xmlns="http://www.w3.org/2000/svg"><path fill="#707070" d="M537.6 95.6928A409.2928 409.2928 0 0 0 159.3344 351.232l-23.2448-43.4176a28.16 28.16 0 0 0-49.664 26.5728l55.1936 102.9632a28.2112 28.2112 0 0 0 24.832 14.848 27.6992 27.6992 0 0 0 12.4416-2.9184l109.9776-54.272a28.16 28.16 0 0 0-24.9344-50.5344l-51.2 25.6a351.6416 351.6416 0 1 1 12.4416 294.4512 28.16 28.16 0 0 0-50.0736 25.6A407.9616 407.9616 0 1 0 537.6 95.6928z"  /><path fill="#707070" d="M522.9056 297.7792a28.16 28.16 0 0 0-28.16 28.16V568.32a28.16 28.16 0 0 0 28.16 28.16h205.8752a28.16 28.16 0 0 0 0-56.32h-177.7152V325.9392a28.16 28.16 0 0 0-28.16-28.16z"  /></svg>