<?xml version="1.0" standalone="no"?><!DOCTYPE svg PUBLIC "-//W3C//DTD SVG 1.1//EN" "http://www.w3.org/Graphics/SVG/1.1/DTD/svg11.dtd"><svg class="icon" width="200px" height="200.00px" viewBox="0 0 1024 1024" version="1.1" xmlns="http://www.w3.org/2000/svg"><path fill="#707070" d="M719.4624 209.92h-11.4176A114.2784 114.2784 0 0 0 593.92 97.28H437.0944a114.3296 114.3296 0 0 0-114.176 112.64h-11.3664a176.9984 176.9984 0 0 0-176.8448 176.7424v297.8816A176.9984 176.9984 0 0 0 296.96 860.7232v36.1984a28.16 28.16 0 0 0 56.32 0v-35.5328h325.0688v35.5328a28.16 28.16 0 0 0 56.32 0v-36.2496a176.9984 176.9984 0 0 0 161.6384-176.128V386.6624A177.0496 177.0496 0 0 0 719.4624 209.92zM437.0944 153.6H593.92a57.9072 57.9072 0 0 1 57.8048 56.32H379.2384a57.9072 57.9072 0 0 1 57.856-56.32z m402.8928 530.944a120.6784 120.6784 0 0 1-120.5248 120.5248H311.552a120.6784 120.6784 0 0 1-120.5248-120.5248V386.6624A120.6272 120.6272 0 0 1 311.552 266.24h407.9104a120.6272 120.6272 0 0 1 120.5248 120.4736z"  /><path fill="#707070" d="M378.88 401.6128a28.16 28.16 0 0 0-28.16 28.16v247.1424a28.16 28.16 0 0 0 56.32 0V429.7728a28.16 28.16 0 0 0-28.16-28.16zM653.9776 401.6128a28.16 28.16 0 0 0-28.16 28.16v247.1424a28.16 28.16 0 0 0 56.32 0V429.7728a28.16 28.16 0 0 0-28.16-28.16z"  /></svg>