<?xml version="1.0" standalone="no"?><!DOCTYPE svg PUBLIC "-//W3C//DTD SVG 1.1//EN" "http://www.w3.org/Graphics/SVG/1.1/DTD/svg11.dtd"><svg t="1676448316556" class="icon" viewBox="0 0 1024 1024" version="1.1" xmlns="http://www.w3.org/2000/svg" p-id="863" xmlns:xlink="http://www.w3.org/1999/xlink" width="200" height="200"><path d="M847.70019555 374.62243555c1.07633778-10.94542222 1.64977778-22.03875555 1.64977778-33.26748444 0-186.25422222-150.98993778-337.24416-337.24416-337.24416S174.86165333 155.09959111 174.86165333 341.35608889c0 11.15249778 0.56661333 22.17073778 1.62929778 33.04448-49.97688889 21.56088889-84.96355555 71.26812445-84.96355556 129.15598222v375.87968c0 77.65333333 62.95096889 140.60657778 140.60657778 140.60657778h559.41347556c77.65333333 0 140.60430222-62.95096889 140.60430222-140.60657778V503.55541333c0-57.68988445-34.74773333-107.25489778-84.45155556-128.93297778zM510.76778667 118.2208c124.17024 0 224.82944 100.6592 224.82944 224.82830222 0 6.7072-0.31288889 13.34158222-0.88974222 19.89973333H286.82695111a227.66592 227.66592 0 0 1-0.88974222-19.89973333c0.00227555-124.16796445 100.66147555-224.82830222 224.83057778-224.82830222z" fill="#707070" p-id="864"></path></svg>