<?xml version="1.0" standalone="no"?><!DOCTYPE svg PUBLIC "-//W3C//DTD SVG 1.1//EN" "http://www.w3.org/Graphics/SVG/1.1/DTD/svg11.dtd"><svg class="icon" width="200px" height="200.00px" viewBox="0 0 1024 1024" version="1.1" xmlns="http://www.w3.org/2000/svg"><path fill="#707070" d="M294.144 902.4h433.8688a160.512 160.512 0 0 0 160.256-160.256v-400.896a160.512 160.512 0 0 0-158.72-160.256v-34.9184a28.16 28.16 0 0 0-56.32 0v34.9184H343.8592v-38.3488a28.16 28.16 0 0 0-56.32 0v38.5024a160.4096 160.4096 0 0 0-153.6 160.1024V742.4a160.4608 160.4608 0 0 0 160.2048 160z m433.8688-56.32H294.144A104.0384 104.0384 0 0 1 190.2592 742.4V449.8432h641.6896V742.4a104.0896 104.0896 0 0 1-103.936 103.68z m-440.32-608.4608v32.8192a28.16 28.16 0 0 0 56.32 0v-33.1264h329.472v29.696a28.16 28.16 0 1 0 56.32 0v-29.6448a104.0384 104.0384 0 0 1 102.4 103.8848v52.2752H190.2592V341.248a103.9872 103.9872 0 0 1 97.28-103.6288z"  /><path fill="#707070" d="M341.6576 533.3504a40.1408 40.1408 0 1 0 40.0896 40.0896 40.1408 40.1408 0 0 0-40.0896-40.0896zM509.696 533.3504a40.1408 40.1408 0 1 0 40.1408 40.1408 40.1408 40.1408 0 0 0-40.1408-40.1408zM678.2464 533.3504a40.1408 40.1408 0 1 0 40.1408 40.1408 40.1408 40.1408 0 0 0-40.1408-40.1408z"  /><path fill="#707070" d="M341.6576 707.84m-40.1408 0a40.1408 40.1408 0 1 0 80.2816 0 40.1408 40.1408 0 1 0-80.2816 0Z"  /><path fill="#707070" d="M509.696 707.84m-40.1408 0a40.1408 40.1408 0 1 0 80.2816 0 40.1408 40.1408 0 1 0-80.2816 0Z"  /><path fill="#707070" d="M678.2464 707.84m-40.1408 0a40.1408 40.1408 0 1 0 80.2816 0 40.1408 40.1408 0 1 0-80.2816 0Z"  /></svg>