<?xml version="1.0" standalone="no"?><!DOCTYPE svg PUBLIC "-//W3C//DTD SVG 1.1//EN" "http://www.w3.org/Graphics/SVG/1.1/DTD/svg11.dtd"><svg class="icon" width="200px" height="200.00px" viewBox="0 0 1024 1024" version="1.1" xmlns="http://www.w3.org/2000/svg"><path fill="#707070" d="M789.5552 260.1472H552.96A83.3536 83.3536 0 0 1 499.3024 240.64L441.344 191.8976a139.9808 139.9808 0 0 0-89.8048-32.7168H256a139.7248 139.7248 0 0 0-139.8272 139.5712v426.8032A139.7248 139.7248 0 0 0 256 865.28h533.5552a139.7248 139.7248 0 0 0 139.5712-139.5712V399.7184a139.7248 139.7248 0 0 0-139.5712-139.5712z m83.2512 465.408A83.3024 83.3024 0 0 1 789.5552 808.96H256a83.3024 83.3024 0 0 1-83.2512-83.2512V298.752A83.3024 83.3024 0 0 1 256 215.5008h95.5392a83.3536 83.3536 0 0 1 53.5552 19.5072l57.9584 48.7424A139.9808 139.9808 0 0 0 552.96 316.4672h236.6976a83.3024 83.3024 0 0 1 83.2512 83.2512z"  /><path fill="#707070" d="M642.3552 540.0576h-245.248a28.16 28.16 0 0 0 0 56.32h245.248a28.16 28.16 0 1 0 0-56.32z"  /></svg>