<?xml version="1.0" standalone="no"?><!DOCTYPE svg PUBLIC "-//W3C//DTD SVG 1.1//EN" "http://www.w3.org/Graphics/SVG/1.1/DTD/svg11.dtd"><svg class="icon" width="200px" height="200.00px" viewBox="0 0 1024 1024" version="1.1" xmlns="http://www.w3.org/2000/svg"><path fill="#707070" d="M145.5616 538.0096v215.8592a160.9728 160.9728 0 0 0 160.768 160.8192h406.4768a160.9728 160.9728 0 0 0 160.768-160.8192v-215.7056a169.3184 169.3184 0 0 0 36.2496-40.5504 171.4688 171.4688 0 0 0 14.6432-156.7744l-59.648-147.4048A169.3696 169.3696 0 0 0 707.1232 87.04H314.624a169.6768 169.6768 0 0 0-156.9792 104.6016L95.8976 339.4048a171.4176 171.4176 0 0 0 49.664 198.6048z m671.6928 215.8592a104.6016 104.6016 0 0 1-104.448 104.4992H306.3296a104.6016 104.6016 0 0 1-104.448-104.4992V567.808a169.2672 169.2672 0 0 0 39.936 6.7072h8.0384a176.3328 176.3328 0 0 0 129.8432-56.8832 176.384 176.384 0 0 0 259.7376 0 176.3328 176.3328 0 0 0 129.8432 57.0368h8.3968a166.656 166.656 0 0 0 39.5776-6.6048zM147.8144 361.1136l61.7984-147.712A113.5616 113.5616 0 0 1 314.624 143.36h392.4992a113.408 113.408 0 0 1 105.5232 71.1168l59.648 147.3536a115.5072 115.5072 0 0 1-9.8816 105.3184 108.6976 108.6976 0 0 1-87.3984 50.944h-5.7344a120.0128 120.0128 0 0 1-105.1648-62.2592 28.2112 28.2112 0 0 0-49.3568 0 120.0128 120.0128 0 0 1-210.3808 0 28.2112 28.2112 0 0 0-49.3568 0 120.0128 120.0128 0 0 1-105.1648 62.5152h-5.5296a108.3392 108.3392 0 0 1-87.3984-51.2 115.0976 115.0976 0 0 1-9.1136-106.0352z"  /></svg>