<?xml version="1.0" standalone="no"?><!DOCTYPE svg PUBLIC "-//W3C//DTD SVG 1.1//EN" "http://www.w3.org/Graphics/SVG/1.1/DTD/svg11.dtd"><svg class="icon" width="200px" height="200.00px" viewBox="0 0 1024 1024" version="1.1" xmlns="http://www.w3.org/2000/svg"><path fill="#707070" d="M520.6016 88.8832a417.1776 417.1776 0 1 0 417.1264 417.1264 417.6384 417.6384 0 0 0-417.1264-417.1264z m0 778.24a360.8576 360.8576 0 1 1 360.8064-360.8576 361.2672 361.2672 0 0 1-360.8064 360.6016z"  /><path fill="#707070" d="M707.7888 543.8976h-181.4016V325.5296a28.16 28.16 0 1 0-56.32 0v246.528a28.16 28.16 0 0 0 28.16 28.16h209.5616a28.16 28.16 0 0 0 0-56.32z"  /></svg>