<?xml version="1.0" standalone="no"?><!DOCTYPE svg PUBLIC "-//W3C//DTD SVG 1.1//EN" "http://www.w3.org/Graphics/SVG/1.1/DTD/svg11.dtd"><svg class="icon" width="200px" height="200.00px" viewBox="0 0 1024 1024" version="1.1" xmlns="http://www.w3.org/2000/svg"><path fill="#707070" d="M502.6816 912.128A406.1696 406.1696 0 0 0 865.28 690.8928a28.16 28.16 0 0 0-50.0736-25.6 351.1808 351.1808 0 1 1 12.3904-294.1952l-51.2-25.2928a28.16 28.16 0 1 0-24.9344 50.4832L861.1328 450.56a28.2112 28.2112 0 0 0 37.3248-11.9296l55.0912-102.8096a28.16 28.16 0 1 0-49.6128-26.624L880.64 352.3072a407.5008 407.5008 0 1 0-377.9584 559.8208z"  /><path fill="#707070" d="M678.5024 498.5856a28.16 28.16 0 0 0 0-56.32h-118.9376l84.3776-86.4768a28.16 28.16 0 1 0-40.3456-39.3216L507.4432 415.0784 410.7776 316.416a28.16 28.16 0 0 0-40.2432 39.424l84.736 86.4256H335.9232a28.16 28.16 0 0 0 0 56.32h143.36V558.08h-143.36a28.16 28.16 0 0 0 0 56.32h143.36v91.5968a28.16 28.16 0 0 0 56.32 0V614.4h143.36a28.16 28.16 0 0 0 0-56.32h-143.36V498.5856z"  /></svg>