<?xml version="1.0" standalone="no"?><!DOCTYPE svg PUBLIC "-//W3C//DTD SVG 1.1//EN" "http://www.w3.org/Graphics/SVG/1.1/DTD/svg11.dtd"><svg class="icon" width="200px" height="200.00px" viewBox="0 0 1024 1024" version="1.1" xmlns="http://www.w3.org/2000/svg"><path fill="#707070" d="M708.7104 122.1632H322.56a199.0656 199.0656 0 0 0-198.6048 198.8096v385.9456A199.0656 199.0656 0 0 0 322.56 905.728h385.9456a199.0656 199.0656 0 0 0 198.8096-198.8096V320.9728a199.0656 199.0656 0 0 0-198.6048-198.8096z m142.4896 584.7552a142.6432 142.6432 0 0 1-142.4896 142.4896H322.56a142.6944 142.6944 0 0 1-142.4896-142.4896V320.9728A142.6432 142.6432 0 0 1 322.56 178.4832h385.9456a142.6432 142.6432 0 0 1 142.4896 142.4896z"  /><path fill="#707070" d="M702.72 304.4352l-387.5328 401.5104a28.16 28.16 0 0 0 20.48 47.7184 27.8528 27.8528 0 0 0 20.48-8.6016l387.072-401.5104a28.16 28.16 0 1 0-40.4992-39.1168zM370.432 416.8192v53.4016a28.16 28.16 0 0 0 56.32 0V416.8192h53.4016a28.16 28.16 0 0 0 0-56.32H426.752V307.2a28.16 28.16 0 1 0-56.32 0v53.2992H317.0304a28.16 28.16 0 1 0 0 56.32zM703.6928 650.24h-141.7728a28.16 28.16 0 1 0 0 56.32h141.7728a28.16 28.16 0 1 0 0-56.32z"  /></svg>