<?xml version="1.0" standalone="no"?><!DOCTYPE svg PUBLIC "-//W3C//DTD SVG 1.1//EN" "http://www.w3.org/Graphics/SVG/1.1/DTD/svg11.dtd"><svg class="icon" width="200px" height="200.00px" viewBox="0 0 1024 1024" version="1.1" xmlns="http://www.w3.org/2000/svg"><path fill="#707070" d="M581.3248 100.7616a39.936 39.936 0 0 0-46.08 39.424v320.9728a39.936 39.936 0 0 0 39.8848 39.8848h316.0576a39.936 39.936 0 0 0 39.5776-45.3632 416.9216 416.9216 0 0 0-349.44-354.8672z m10.24 343.9616V159.8464a360.6016 360.6016 0 0 1 280.3712 284.8768z"  /><path fill="#707070" d="M451.7888 158.1568a27.5456 27.5456 0 0 0 22.528-27.1872v-1.024a27.648 27.648 0 0 0-32.4608-27.2896A417.2288 417.2288 0 0 0 222.6176 807.936a417.1776 417.1776 0 0 0 589.9264 0 414.3104 414.3104 0 0 0 114.5856-216.8832 27.5968 27.5968 0 0 0-27.2896-32.5632h-0.9216a27.904 27.904 0 0 0-27.2384 22.9376 360.704 360.704 0 1 1-419.84-423.2704z"  /></svg>