<?xml version="1.0" standalone="no"?><!DOCTYPE svg PUBLIC "-//W3C//DTD SVG 1.1//EN" "http://www.w3.org/Graphics/SVG/1.1/DTD/svg11.dtd"><svg class="icon" width="200px" height="200.00px" viewBox="0 0 1024 1024" version="1.1" xmlns="http://www.w3.org/2000/svg"><path fill="#707070" d="M292.4032 864.768H747.52a178.5344 178.5344 0 0 0 178.3296-178.2784v-373.76A178.5344 178.5344 0 0 0 747.52 134.3488H292.4032a178.4832 178.4832 0 0 0-178.2784 178.2784v373.76a178.4832 178.4832 0 0 0 178.2784 178.3808z m455.0656-56.32H292.4032a122.112 122.112 0 0 1-114.7392-80.6912l106.0864-93.5424A40.2944 40.2944 0 0 1 337.92 634.88l51.712 47.2576a97.28 97.28 0 0 0 130.9696-0.3584l153.2928-141.7728a40.3968 40.3968 0 0 1 59.648 5.12L865.28 718.5408a122.112 122.112 0 0 1-117.76 89.9072zM292.4032 190.6688H747.52a122.112 122.112 0 0 1 122.0096 121.9584v318.464L778.24 510.976a96.768 96.768 0 0 0-142.7456-12.4928l-153.2928 141.7728a40.96 40.96 0 0 1-54.7328 0l-51.6608-47.1552a96.5632 96.5632 0 0 0-129.28-1.1264l-76.0832 67.072V312.6272a122.112 122.112 0 0 1 121.9584-121.9584z"  /><path fill="#707070" d="M350.9248 418.0992a51.5072 51.5072 0 1 0-51.5072-51.2 51.456 51.456 0 0 0 51.5072 51.2z"  /></svg>