<?xml version="1.0" standalone="no"?><!DOCTYPE svg PUBLIC "-//W3C//DTD SVG 1.1//EN" "http://www.w3.org/Graphics/SVG/1.1/DTD/svg11.dtd"><svg t="1676453389461" class="icon" viewBox="0 0 1024 1024" version="1.1" xmlns="http://www.w3.org/2000/svg" p-id="925" xmlns:xlink="http://www.w3.org/1999/xlink" width="200" height="200"><path d="M1016.52885825 378.49965185c0 67.25937565-53.6870912 100.93670249-100.93532164 100.93670248H646.43175833c-61.77329506 0-101.00298285-46.78841044-101.00298285-109.08642503l0.06628036-261.01343657c0-62.19859403 39.16478826-100.93670249 100.93808333-100.93670248h269.1631591c61.83681375 0.06489952 100.93532163 38.73810845 100.93532167 100.93670248V378.49965185zM309.97470255 546.72748932H108.10405925c-61.77191422 0-100.93946416 46.78841044-100.93946416 108.98562363v261.11285711c0 62.19997488 39.16754995 100.93946416 100.93946416 100.93946417h269.16315913c47.37941031 0 100.93670249-38.77124864 100.93670248-100.93946417V647.66281096c0-62.26211271-39.16616911-100.93532163-100.93670248-100.93532164h-67.291135z m344.57087646-0.03314018c-62.23173422 0-109.051904 39.16478826-109.051904 100.96984266v269.16315911c0 70.08595681 41.66134847 100.93946416 108.9538643 100.93946417h261.1459973c62.23173422 0 100.93532163-39.13302892 100.93532164-100.93946417V647.66281096c0.06628035-61.86995391-38.70496827-100.93532163-100.93532164-100.93532164l-261.0479576-0.03314018zM108.10267841 8.39979025c-62.23173422 0-100.93946416 39.13302892-100.93946415 100.93670248V378.49965185c0 62.06741415 38.77124864 100.93670249 100.93946415 100.93670248h269.16315913c62.23173422 0 100.93670249-39.13302892 100.93670247-100.93670248V109.33649273c0.06628035-61.70563385-38.70496827-100.93670249-100.93670247-100.93670248H108.10405925z" fill="#707070" p-id="926"></path></svg>