<?xml version="1.0" standalone="no"?><!DOCTYPE svg PUBLIC "-//W3C//DTD SVG 1.1//EN" "http://www.w3.org/Graphics/SVG/1.1/DTD/svg11.dtd"><svg class="icon" width="200px" height="200.00px" viewBox="0 0 1024 1024" version="1.1" xmlns="http://www.w3.org/2000/svg"><path fill="#707070" d="M218.4704 868.352a29.0304 29.0304 0 0 0 5.12-0.512c3.2768 0.3072 6.5536 0.512 9.8816 0.512h508.5184a121.6512 121.6512 0 0 0 114.9952-81.92l80.2816-233.9328a109.4144 109.4144 0 0 0-74.1888-140.544v-40.96a126.3104 126.3104 0 0 0-126.208-126.208h-190.5152a69.4784 69.4784 0 0 1-41.3696-13.568L413.7984 163.84a125.3376 125.3376 0 0 0-74.7008-24.4736H234.2912a126.3616 126.3616 0 0 0-126.208 126.4128V757.76a110.4896 110.4896 0 0 0 110.3872 110.592zM876.9024 486.4a52.3776 52.3776 0 0 1 7.1168 47.8208L803.84 768a65.2288 65.2288 0 0 1-61.44 44.0832H233.5232a54.0672 54.0672 0 0 1-50.5856-73.1136l90.5216-240.64a53.3504 53.3504 0 0 1 49.6128-34.3552h510.72a52.48 52.48 0 0 1 43.1104 22.4256zM234.2912 195.8912h104.8064a69.1712 69.1712 0 0 1 41.3696 13.568L471.6544 276.48a125.2864 125.2864 0 0 0 74.7008 24.5248h190.5664a69.9392 69.9392 0 0 1 69.888 69.888v36.9664H323.072a109.7728 109.7728 0 0 0-102.4 70.8608l-56.32 149.6576V265.7792a69.9904 69.9904 0 0 1 69.9392-69.888z"  /></svg>