<?xml version="1.0" standalone="no"?><!DOCTYPE svg PUBLIC "-//W3C//DTD SVG 1.1//EN" "http://www.w3.org/Graphics/SVG/1.1/DTD/svg11.dtd"><svg class="icon" width="200px" height="200.00px" viewBox="0 0 1024 1024" version="1.1" xmlns="http://www.w3.org/2000/svg"><path fill="#707070" d="M786.8928 265.2672h-236.6976A83.2512 83.2512 0 0 1 496.64 245.76l-58.0096-48.7424a139.7248 139.7248 0 0 0-89.7536-32.7168H253.0816a139.7248 139.7248 0 0 0-139.5712 139.5712v426.8032A139.7248 139.7248 0 0 0 253.0816 870.4h533.8112A139.7248 139.7248 0 0 0 926.72 730.6752V404.8384a139.7248 139.7248 0 0 0-139.8272-139.5712z m83.5072 465.408A83.3536 83.3536 0 0 1 786.8928 814.08H253.0816a83.3024 83.3024 0 0 1-83.2512-83.2512V303.872a83.3024 83.3024 0 0 1 83.2512-83.2512h95.7952A83.3536 83.3536 0 0 1 402.432 240.128l57.9584 48.7424a139.8784 139.8784 0 0 0 89.8048 32.7168h236.6976A83.3536 83.3536 0 0 1 870.4 404.8384z"  /><path fill="#707070" d="M487.2192 660.1216H293.5808a28.16 28.16 0 0 0 0 56.32h193.6384a28.16 28.16 0 0 0 0-56.32z"  /></svg>