<?xml version="1.0" standalone="no"?><!DOCTYPE svg PUBLIC "-//W3C//DTD SVG 1.1//EN" "http://www.w3.org/Graphics/SVG/1.1/DTD/svg11.dtd"><svg class="icon" width="200px" height="200.00px" viewBox="0 0 1024 1024" version="1.1" xmlns="http://www.w3.org/2000/svg"><path fill="#707070" d="M764.9792 127.6928H276.8896c-96.4096 0-174.848 80.1792-174.848 178.7392v310.6816c0 98.5088 78.4384 178.688 174.848 178.688a44.0832 44.0832 0 0 1 34.9696 17.4592l57.1904 73.984a61.44 61.44 0 0 0 46.848 24.1152h1.7408a61.44 61.44 0 0 0 46.336-21.248L532.48 811.2128a44.3392 44.3392 0 0 1 33.3312-15.36h199.68c96.4096 0 174.848-80.1792 174.848-178.688V306.432c-0.512-98.56-78.9504-178.7392-175.36-178.7392z m118.528 489.4208c0 67.4816-53.1456 122.368-118.528 122.368h-199.424a100.352 100.352 0 0 0-75.8272 34.8672l-68.3008 78.6944a5.12 5.12 0 0 1-3.9424 1.8432 5.12 5.12 0 0 1-3.8912-2.0992l-57.1904-73.984a99.9424 99.9424 0 0 0-79.5136-39.3216c-65.3824 0-118.528-54.8864-118.528-122.368V306.432c0-67.5328 53.1456-122.4192 118.528-122.4192h488.0896c65.3824 0 118.528 54.8864 118.528 122.4192z"  /><path fill="#707070" d="M748.1856 353.9456H303.872a28.16 28.16 0 1 0 0 56.32h444.3136a28.16 28.16 0 0 0 0-56.32zM658.1248 522.496H303.872a28.16 28.16 0 0 0 0 56.32h354.2528a28.16 28.16 0 0 0 0-56.32z"  /></svg>