<?xml version="1.0" standalone="no"?><!DOCTYPE svg PUBLIC "-//W3C//DTD SVG 1.1//EN" "http://www.w3.org/Graphics/SVG/1.1/DTD/svg11.dtd"><svg class="icon" width="200px" height="200.00px" viewBox="0 0 1024 1024" version="1.1" xmlns="http://www.w3.org/2000/svg"><path fill="#707070" d="M801.4336 256.9728h-240.0768A85.0944 85.0944 0 0 1 506.88 237.1072l-58.88-49.4592a141.6192 141.6192 0 0 0-90.8288-33.0752h-97.28a141.312 141.312 0 0 0-141.0048 141.1584v432.8448a141.312 141.312 0 0 0 141.1584 141.1584h541.3888a141.312 141.312 0 0 0 141.1072-141.1584V398.1312a141.312 141.312 0 0 0-141.1072-141.1584z m84.7872 471.6032a84.8896 84.8896 0 0 1-84.7872 84.8384H260.0448a84.8896 84.8896 0 0 1-84.8384-84.8384V295.7312a84.8896 84.8896 0 0 1 84.8384-84.8384h97.28a84.992 84.992 0 0 1 54.5792 19.8656l58.8288 49.4592a141.568 141.568 0 0 0 90.7776 33.0752h240.0768a84.8896 84.8896 0 0 1 84.7872 84.8384z"  /><path fill="#707070" d="M652.1344 540.8768h-96.2048V444.672a28.16 28.16 0 0 0-56.32 0v96.2048H403.4048a28.16 28.16 0 0 0 0 56.32h96.2048v96.2048a28.16 28.16 0 0 0 56.32 0v-96.2048h96.2048a28.16 28.16 0 0 0 0-56.32z"  /></svg>