<?xml version="1.0" standalone="no"?><!DOCTYPE svg PUBLIC "-//W3C//DTD SVG 1.1//EN" "http://www.w3.org/Graphics/SVG/1.1/DTD/svg11.dtd"><svg class="icon" width="200px" height="200.00px" viewBox="0 0 1024 1024" version="1.1" xmlns="http://www.w3.org/2000/svg"><path fill="#707070" d="M292.2496 863.1808h451.4816A173.1584 173.1584 0 0 0 916.48 690.2272V338.2784a173.1584 173.1584 0 0 0-172.9536-172.9536H292.2496A173.1072 173.1072 0 0 0 119.296 338.2784v351.9488a173.1072 173.1072 0 0 0 172.9536 172.9536z m451.4816-56.32H292.2496a116.7872 116.7872 0 0 1-116.6336-116.6336V376.7296L410.6752 500.224a215.04 215.04 0 0 0 204.8-2.3552L860.16 361.9328v328.2944a116.7872 116.7872 0 0 1-116.4288 116.6336zM292.2496 221.6448h451.4816a116.7872 116.7872 0 0 1 110.4384 79.3088l-265.9328 147.6608a158.72 158.72 0 0 1-151.3472 1.9456L178.0736 314.4192a116.8896 116.8896 0 0 1 114.176-92.7744z"  /></svg>