<?xml version="1.0" standalone="no"?><!DOCTYPE svg PUBLIC "-//W3C//DTD SVG 1.1//EN" "http://www.w3.org/Graphics/SVG/1.1/DTD/svg11.dtd"><svg class="icon" width="200px" height="200.00px" viewBox="0 0 1024 1024" version="1.1" xmlns="http://www.w3.org/2000/svg"><path fill="#707070" d="M695.5008 126.0032H325.12a201.2672 201.2672 0 0 0-201.0624 201.0112v370.3808a201.2672 201.2672 0 0 0 201.0624 201.0624h370.3808a201.2672 201.2672 0 0 0 201.0624-201.0624V327.0144a201.2672 201.2672 0 0 0-201.0624-201.0112z m144.7424 571.392a144.896 144.896 0 0 1-144.7424 144.7424H325.12a144.896 144.896 0 0 1-144.7424-144.7424V327.0144A144.896 144.896 0 0 1 325.12 182.3232h370.3808a144.896 144.896 0 0 1 144.7424 144.6912z"  /><path fill="#707070" d="M746.3424 606.208H503.8592a28.16 28.16 0 0 0 0 56.32h242.4832a28.16 28.16 0 0 0 0-56.32zM746.3424 372.6848H503.8592a28.16 28.16 0 0 0 0 56.32h242.4832a28.16 28.16 0 0 0 0-56.32zM355.2256 553.9328a80.4352 80.4352 0 1 0 80.384 80.4352 80.4864 80.4864 0 0 0-80.384-80.4352z m0 104.4992a24.1152 24.1152 0 1 1 24.064-24.064 24.1152 24.1152 0 0 1-24.064 24.064zM398.08 317.44L336.9472 387.9936 300.1344 353.28a28.16 28.16 0 0 0-38.8096 40.96l58.2144 54.8864a28.16 28.16 0 0 0 19.4048 7.7312h1.3312a27.9552 27.9552 0 0 0 19.9168-9.6768l80.4352-92.7744A28.16 28.16 0 0 0 398.08 317.44z"  /></svg>