<?xml version="1.0" standalone="no"?><!DOCTYPE svg PUBLIC "-//W3C//DTD SVG 1.1//EN" "http://www.w3.org/Graphics/SVG/1.1/DTD/svg11.dtd"><svg class="icon" width="200px" height="200.00px" viewBox="0 0 1024 1024" version="1.1" xmlns="http://www.w3.org/2000/svg"><path fill="#707070" d="M508.9792 259.7888a191.3344 191.3344 0 1 0 191.2832 191.3344 191.5392 191.5392 0 0 0-191.2832-191.3344z m0 326.2976a135.0144 135.0144 0 1 1 134.9632-134.9632 135.0656 135.0656 0 0 1-134.9632 134.9632z"  /><path fill="#707070" d="M799.5392 643.072a348.416 348.416 0 1 0-577.5872 5.12L153.6 784.7424a51.2 51.2 0 0 0 42.9056 73.984l79.9744 4.5056 48.7424 58.368a51.2 51.2 0 0 0 39.2704 18.3808h4.7616a51.2 51.2 0 0 0 39.8848-26.0096l64.768-116.0192a337.92 337.92 0 0 0 75.8784-0.7168l63.9488 116.3264a51.2 51.2 0 0 0 39.8848 26.2656h5.12a51.2 51.2 0 0 0 39.2192-18.3296l48.7936-58.2656 80.0256-4.5056a51.2 51.2 0 0 0 43.008-73.7792zM363.52 879.7696l-45.4144-54.4256a51.2 51.2 0 0 0-36.5056-18.2272l-74.1888-4.1984L261.12 695.7056a348.5184 348.5184 0 0 0 154.368 90.9824zM216.8832 451.1232a292.096 292.096 0 1 1 292.096 292.096 292.4032 292.4032 0 0 1-292.096-292.096z m524.288 355.9936a51.2 51.2 0 0 0-36.352 18.2272l-45.3632 54.2208-51.9168-94.3616a348.5184 348.5184 0 0 0 153.1392-93.5936l54.9888 111.3088z"  /></svg>