<?xml version="1.0" standalone="no"?><!DOCTYPE svg PUBLIC "-//W3C//DTD SVG 1.1//EN" "http://www.w3.org/Graphics/SVG/1.1/DTD/svg11.dtd"><svg class="icon" width="200px" height="200.00px" viewBox="0 0 1024 1024" version="1.1" xmlns="http://www.w3.org/2000/svg"><path fill="#707070" d="M513.3312 94.72a409.6 409.6 0 1 0 409.6 409.6 409.9584 409.9584 0 0 0-409.6-409.6z m0 762.88a353.28 353.28 0 1 1 353.28-353.28 353.6384 353.6384 0 0 1-353.28 353.0752z"  /><path fill="#707070" d="M513.3312 600.7296a28.16 28.16 0 0 0 28.16-28.16V292.1984a28.16 28.16 0 0 0-56.32 0v280.3712a28.16 28.16 0 0 0 28.16 28.16zM513.3312 641.5872a36.2496 36.2496 0 1 0 36.2496 36.2496 36.2496 36.2496 0 0 0-36.2496-36.2496z"  /></svg>