<?xml version="1.0" standalone="no"?><!DOCTYPE svg PUBLIC "-//W3C//DTD SVG 1.1//EN" "http://www.w3.org/Graphics/SVG/1.1/DTD/svg11.dtd"><svg class="icon" width="200px" height="200.00px" viewBox="0 0 1024 1024" version="1.1" xmlns="http://www.w3.org/2000/svg"><path fill="#707070" d="M773.632 146.1248H239.5648a138.24 138.24 0 0 0-138.24 138.24v53.0944A81.408 81.408 0 0 0 148.48 411.6992a99.1744 99.1744 0 0 1 0 180.5824 81.3056 81.3056 0 0 0-46.8992 74.24v53.1456a138.24 138.24 0 0 0 138.24 138.24H773.632a138.24 138.24 0 0 0 138.24-138.24v-54.784a81.92 81.92 0 0 0-45.2608-73.6256 99.2256 99.2256 0 0 1 0-178.5344 81.92 81.92 0 0 0 45.2608-73.6256v-54.784a138.24 138.24 0 0 0-138.24-138.1888z m81.92 192.9728a25.2928 25.2928 0 0 1-13.568 22.9376 155.5968 155.5968 0 0 0 0 279.9104 25.2928 25.2928 0 0 1 13.568 22.9376v54.784a81.92 81.92 0 0 1-81.92 81.92H239.5648a81.92 81.92 0 0 1-81.92-81.92v-53.1456a24.9344 24.9344 0 0 1 13.9264-22.9888 155.4944 155.4944 0 0 0 0-283.0848 24.9856 24.9856 0 0 1-13.9264-22.9888V284.3136a81.92 81.92 0 0 1 81.92-81.92H773.632a81.92 81.92 0 0 1 81.92 81.92z"  /><path fill="#707070" d="M624.64 376.5248H388.4032a28.16 28.16 0 0 0 0 56.32H624.64a28.16 28.16 0 0 0 0-56.32zM624.64 567.6544H388.4032a28.16 28.16 0 0 0 0 56.32H624.64a28.16 28.16 0 1 0 0-56.32z"  /></svg>