<?xml version="1.0" standalone="no"?><!DOCTYPE svg PUBLIC "-//W3C//DTD SVG 1.1//EN" "http://www.w3.org/Graphics/SVG/1.1/DTD/svg11.dtd"><svg class="icon" width="200px" height="200.00px" viewBox="0 0 1024 1024" version="1.1" xmlns="http://www.w3.org/2000/svg"><path fill="#707070" d="M518.912 927.5904a423.0656 423.0656 0 1 0-423.0144-423.0144 423.5264 423.5264 0 0 0 423.0144 423.0144z m0-789.76a366.7456 366.7456 0 1 1-366.6944 366.7456 367.1552 367.1552 0 0 1 366.6944-366.7456z"  /><path fill="#707070" d="M357.12 559.3088a28.16 28.16 0 0 0 0 56.32h133.632v93.9008a28.16 28.16 0 0 0 56.32 0v-93.9008H680.96a28.16 28.16 0 0 0 0-56.32h-133.888v-61.44H680.96a28.16 28.16 0 0 0 0-56.32h-109.9264l87.04-89.0368a28.16 28.16 0 0 0-40.3456-39.3216L519.168 414.1056 420.3008 313.1392a28.16 28.16 0 0 0-40.2432 39.424l87.04 88.9856H357.12a28.16 28.16 0 0 0 0 56.32h133.632v61.44z"  /></svg>